<svg xmlns="http://www.w3.org/2000/svg" version="1.1" xmlns:xlink="http://www.w3.org/1999/xlink" xmlns:svgjs="http://svgjs.dev/svgjs" width="1440" height="560" preserveAspectRatio="none" viewBox="0 0 1440 560"><g mask="url(&quot;#SvgjsMask1715&quot;)" fill="none"><rect width="1440" height="560" x="0" y="0" fill="url(&quot;#SvgjsLinearGradient1716&quot;)"></rect><path d="M262.778,468.704C310.266,471,357.152,446.239,379.1,404.065C399.734,364.416,384.317,318.326,360.827,280.299C338.787,244.619,304.705,214.782,262.778,215.757C222.159,216.701,191.976,249.122,172.321,284.682C153.433,318.855,147.208,358.646,164.433,393.687C183.927,433.345,218.64,466.57,262.778,468.704" fill="rgba(28, 83, 142, 0.4)" class="triangle-float1"></path><path d="M806.5,78.67C833.64,77.876,854.192,57.163,867.698,33.608C881.117,10.204,887.893,-17.594,875.409,-41.509C862.057,-67.087,835.321,-84.978,806.5,-83.625C779.461,-82.355,761.179,-59.144,747.957,-35.524C735.134,-12.616,726.788,14.02,738.765,37.382C751.694,62.602,778.171,79.499,806.5,78.67" fill="rgba(28, 83, 142, 0.4)" class="triangle-float2"></path><path d="M1339.533,548.481C1370.362,548.864,1404.138,545.118,1420.675,519.097C1438.141,491.614,1432.273,456.309,1416.059,428.068C1399.769,399.694,1372.241,378.592,1339.533,377.765C1305.43,376.903,1272.615,394.228,1255.998,424.021C1239.764,453.128,1243.233,489.453,1261.806,517.126C1278.494,541.989,1309.591,548.109,1339.533,548.481" fill="rgba(28, 83, 142, 0.4)" class="triangle-float2"></path><path d="M537.202,510.288C573.571,510.99,602.944,481.886,618.517,449.012C632.03,420.488,624.205,388.267,607.77,361.321C592.136,335.69,567.153,317.775,537.202,315.693C502.892,313.309,464.659,320.468,447.319,350.17C429.884,380.035,444.217,415.819,461.145,445.975C478.564,477.005,501.624,509.602,537.202,510.288" fill="rgba(28, 83, 142, 0.4)" class="triangle-float3"></path><path d="M91.097,556.449C148.501,558.098,215.874,556.279,243.739,506.064C271.204,456.569,232.885,401.434,204.192,352.64C176.103,304.873,146.487,248.125,91.097,246.491C34.051,244.808,-6.678,295.6,-34.182,345.606C-60.464,393.391,-74.933,450.826,-47.075,497.71C-19.675,543.823,37.48,554.909,91.097,556.449" fill="rgba(28, 83, 142, 0.4)" class="triangle-float3"></path><path d="M1103.7 493.64 a111.52 111.52 0 1 0 223.04 0 a111.52 111.52 0 1 0 -223.04 0z" fill="rgba(28, 83, 142, 0.4)" class="triangle-float2"></path><path d="M1173.032,406.383C1209.625,405.454,1246.782,396.263,1267.123,365.83C1289.816,331.878,1298.356,286.255,1276.292,251.89C1255.391,219.335,1211.719,219.438,1173.032,219.28C1133.932,219.12,1090.24,218.676,1068.299,251.039C1044.28,286.466,1046.361,335.337,1070.288,370.826C1092.002,403.033,1134.202,407.369,1173.032,406.383" fill="rgba(28, 83, 142, 0.4)" class="triangle-float3"></path><path d="M962.173,407.734C1010.288,408.542,1062.499,394.24,1084.554,351.47C1105.486,310.877,1080.377,265.223,1055.366,227.008C1033.409,193.459,1002.175,167.202,962.173,164.478C916.709,161.382,868.372,174.079,844.056,212.618C818.342,253.373,821.757,306.25,846.713,347.474C870.809,387.279,915.65,406.952,962.173,407.734" fill="rgba(28, 83, 142, 0.4)" class="triangle-float1"></path><path d="M625.98 516.22 a125.72 125.72 0 1 0 251.44 0 a125.72 125.72 0 1 0 -251.44 0z" fill="rgba(28, 83, 142, 0.4)" class="triangle-float1"></path></g><defs><mask id="SvgjsMask1715"><rect width="1440" height="560" fill="#ffffff"></rect></mask><linearGradient x1="15.28%" y1="-39.29%" x2="84.72%" y2="139.29%" gradientUnits="userSpaceOnUse" id="SvgjsLinearGradient1716"><stop stop-color="rgba(247, 238, 238, 1)" offset="0"></stop><stop stop-color="rgba(21, 114, 182, 1)" offset="1"></stop></linearGradient><style>
                @keyframes float1 {
                    0%{transform: translate(0, 0)}
                    50%{transform: translate(-10px, 0)}
                    100%{transform: translate(0, 0)}
                }

                .triangle-float1 {
                    animation: float1 5s infinite;
                }

                @keyframes float2 {
                    0%{transform: translate(0, 0)}
                    50%{transform: translate(-5px, -5px)}
                    100%{transform: translate(0, 0)}
                }

                .triangle-float2 {
                    animation: float2 4s infinite;
                }

                @keyframes float3 {
                    0%{transform: translate(0, 0)}
                    50%{transform: translate(0, -10px)}
                    100%{transform: translate(0, 0)}
                }

                .triangle-float3 {
                    animation: float3 6s infinite;
                }
            </style></defs></svg>